<?xml version="1.0" encoding="UTF-8"?>
<svg id="Layer_1" xmlns="http://www.w3.org/2000/svg" version="1.1" viewBox="0 0 316.57 354.95">
  <!-- Generator: Adobe Illustrator 29.3.1, SVG Export Plug-In . SVG Version: 2.1.0 Build 151)  -->
  <defs>
    <style>
      .st0 {
        fill: #dfb273;
      }

      .st1 {
        fill: #e0e0e0;
      }

      .st2, .st3 {
        fill: #503416;
      }

      .st4 {
        fill: #724720;
      }

      .st5 {
        fill: #2b1b0c;
      }

      .st6 {
        fill: #492909;
      }

      .st7 {
        fill: #b24e00;
      }

      .st8, .st9 {
        fill: #3a200a;
      }

      .st10 {
        fill: #7676ff;
      }

      .st11, .st12, .st13 {
        fill: #c79450;
      }

      .st14 {
        fill: #ccc;
      }

      .st12 {
        opacity: .6;
      }

      .st13 {
        opacity: .5;
      }

      .st3, .st15 {
        opacity: .2;
      }

      .st16 {
        fill: #fff;
      }

      .st17 {
        fill: #160c01;
      }

      .st18 {
        opacity: .35;
      }

      .st19 {
        opacity: .1;
      }

      .st20 {
        opacity: .15;
      }

      .st21 {
        fill: #4940ff;
      }

      .st22 {
        fill: #3d2305;
      }

      .st23 {
        fill: #ff7b00;
      }

      .st24 {
        fill: #e06b0b;
      }

      .st25 {
        fill: #59380e;
      }

      .st9 {
        opacity: .6;
      }
    </style>
  </defs>
  <g id="teacher_flexi">
    <g id="head">
      <path class="st23" d="M49.74,168.51c3.52-29.72,3.8-86.74,4.99-117.92.51-13.27,2.24-24.75,4.06-33.56C61.02,6.21,70.92-1.08,81.65.13l41.42,4.7c9.47,1.07,18.98,1.61,28.5,1.61,9.51,0,19.03-.54,28.5-1.61L221.48.13c10.73-1.22,20.63,6.08,22.86,16.89,1.82,8.81,3.55,20.29,4.06,33.56,1.19,31.18,1.48,88.2,4.99,117.92l-97.74,30-105.92-30Z"/>
      <path class="st19" d="M228.71,156.7c1.91-25.15,12.88-71.43,12.24-87.26-.72-17.76.38-53.2-26.18-68.58.23.73,24.2-6.95,29.59,16.13,1.78,7.64,3.55,20.29,4.06,33.56,1.14,29.78,1.45,83.12,4.54,113.75.15,1.44-2.13,12.41-1.97,13.75l-22.27-21.35Z"/>
      <g>
        <ellipse class="st16" cx="115.4" cy="78.24" rx="24.15" ry="24.73"/>
        <g>
          <ellipse class="st16" cx="199.74" cy="78.24" rx="24.15" ry="24.73"/>
          <g>
            <ellipse class="st8" cx="194.04" cy="80.62" rx="15.01" ry="15.37"/>
            <ellipse class="st16" cx="189.1" cy="76.61" rx="5.08" ry="5.2"/>
          </g>
          <g>
            <ellipse class="st8" cx="120.65" cy="80.62" rx="15.01" ry="15.37"/>
            <ellipse class="st16" cx="115.71" cy="76.61" rx="5.08" ry="5.2"/>
          </g>
        </g>
      </g>
      <path class="st9" d="M133.99,122.71c-.6-1.59,1.23-3.01,2.61-2.03,1.09.77,2.15,1.46,3.11,1.99,6.82,3.73,14.06,6.42,21.86,6.97,3.78.27,7.61.05,11.32-.74,1.85-.4,3.67-.94,5.43-1.63.08-.03.17-.06.28-.1,1.53-.55,2.89,1.13,2.06,2.53-4.98,8.41-12.43,15.24-23.07,14.6-6.64-.4-11.96-3.83-16.37-8.57-3.43-3.69-5.44-8.33-7.23-13.03Z"/>
      <path class="st9" d="M128.52,41.85c-7.34-3.74-14.23-5.22-22.11-2.6-5.79,1.87-15.86,7.49-16.54,14.26-.7-.9-1.07-2.1-1.18-3.32-.23-8.45,7.89-15.61,15.45-18,9.27-3.15,20.32.4,24.38,9.67h0Z"/>
      <path class="st9" d="M185.43,40.39c4.55-9.04,15.76-12,24.85-8.37,7.42,2.79,15.15,10.37,14.48,18.79-.17,1.21-.6,2.39-1.35,3.25-.3-6.78-10.08-12.94-15.76-15.11-7.74-3.04-14.7-1.92-22.22,1.43h0Z"/>
      <path class="st7" d="M164.26,142.15c-3.38-4.15-13.55-10.3-23.3-8.92,0,0,3.79,5.1,10.01,7.92,5.32,2.41,13.28.99,13.28.99Z"/>
      <path id="glasses" class="st2" d="M254.2,54.27c-4.43-2.22-23.19-5.97-41.43-5.97s-27.74,3.17-33.53,6.03c-6.13,3.1-8.86,7.9-12.17,9.47-3.31,1.57-7.19,1.89-7.19,1.89,0,0-3.88-.32-7.19-1.89-3.31-1.57-6.04-6.37-12.17-9.47-5.78-2.86-15.28-6.03-33.53-6.03-11.82,0-23.85,1.57-32.07,3.29h0c-8.31,1.46-20.84,4.88-22.81,6.61-1.97,1.73-.71,7.76,2.09,9.03,2.05.93,6.98.5,9.49.2,1.36-.16,2.76.2,3.76,1.13,1.43,1.33,1.69,3.25,2.16,6.96,1.09,8.3,6.12,26.22,11.15,31.69,5.03,5.46,14.42,8.96,27.97,8.96s22.73-.87,31.91-10.05,10.93-25.79,12.68-28.63c1.75-2.84,6.56-2.4,6.56-2.4,0,0,4.81-.44,6.56,2.4,1.75,2.84,3.5,19.45,12.68,28.63s18.36,10.05,31.91,10.05,22.95-3.5,27.97-8.96c5.03-5.46,10.05-23.38,11.15-31.69.65-5.14.91-6.84,4.4-8.29s3.24-6.48,3.24-6.48c0,0,.85-4.26-3.58-6.48ZM144.98,85.59c-.94,4.59-4.47,14.48-12.72,20.61s-27.08,4.59-37.92,2.47c-10.83-2.12-15.07-15.31-16.49-20.72-1.41-5.42-5.18-18.84-1.06-25.91,4.12-7.07,26.61-8.36,43.45-7.18,16.84,1.18,25.79,10.13,25.79,18.51,0,0-.12,7.63-1.06,12.22ZM241.9,87.95c-1.41,5.42-5.65,18.6-16.49,20.72-10.83,2.12-29.67,3.65-37.92-2.47s-11.78-16.01-12.72-20.61-1.06-12.22-1.06-12.22c0-8.39,8.95-17.34,25.79-18.51,16.84-1.18,39.33.12,43.45,7.18,4.12,7.07.35,20.49-1.06,25.91Z"/>
      <path id="glasses1" data-name="glasses" class="st3" d="M252.19,58.48c-4.43-2.22-21.17-5.17-39.42-5.17s-27.74,3.17-33.53,6.03c-6.13,3.1-8.86,7.9-12.17,9.47-3.31,1.57-7.19,1.89-7.19,1.89,0,0-3.88-.32-7.19-1.89-3.31-1.57-6.04-6.37-12.17-9.47-5.78-2.86-15.28-6.03-33.53-6.03-11.82,0-23.85,1.57-32.07,3.29h0c-8.31,1.46-20.59,6.5-20.59,6.5,0,0-.17,5.56-.26,9.11,2.05.93,7.11.53,9.62.23,1.36-.16,2.76.2,3.76,1.13,1.43,1.33,1.69,3.25,2.16,6.96,1.09,8.3,6.12,26.22,11.15,31.69,5.03,5.46,14.42,8.96,27.97,8.96s22.73-.87,31.91-10.05,10.93-25.79,12.68-28.63c1.75-2.84,6.56-2.4,6.56-2.4,0,0,4.81-.44,6.56,2.4,1.75,2.84,3.5,19.45,12.68,28.63s18.36,10.05,31.91,10.05,22.95-3.5,27.97-8.96c5.03-5.46,10.2-23.33,10.26-31.93.03-5.18,1.68-18.37,2.94-21.81ZM144.98,90.59c-.94,4.59-4.47,14.48-12.72,20.61s-27.08,4.59-37.92,2.47c-10.83-2.12-15.07-15.31-16.49-20.72-1.41-5.42-5.18-18.84-1.06-25.91,4.12-7.07,26.61-8.36,43.45-7.18,16.84,1.18,25.79,10.13,25.79,18.51,0,0-.12,7.63-1.06,12.22ZM241.9,92.95c-1.41,5.42-5.65,18.6-16.49,20.72-10.83,2.12-29.67,3.65-37.92-2.47s-11.78-16.01-12.72-20.61-1.06-12.22-1.06-12.22c0-8.39,8.95-17.34,25.79-18.51,16.84-1.18,39.33.12,43.45,7.18,4.12,7.07.35,20.49-1.06,25.91Z"/>
    </g>
    <g id="body">
      <g class="st20">
        <path d="M236.39,320.56c-7.96,0-15.51.49-22.28,1.35-13.63-4.24-33.76-6.93-56.23-6.93s-43.77,2.84-57.4,7.29c-5.92-.46-12.25-.72-18.82-.72-33.36,0-60.41,6.45-60.41,14.4s27.05,14.4,60.41,14.4c8.54,0,16.66-.42,24.03-1.19,13.42,3.56,31.85,5.76,52.2,5.76,22.48,0,42.61-2.69,56.23-6.93,6.77.87,14.31,1.35,22.28,1.35,29.09,0,52.67-6.45,52.67-14.4s-23.58-14.4-52.67-14.4Z"/>
      </g>
      <g>
        <g>
          <path class="st16" d="M281.81,142.11l12.58-45.26c.04-.11.97-3.01,4.3-3.01.57,0,1.2.09,1.85.26,1.19.31,2.02.94,2.47,1.86,1.11,2.27-.31,5.66-.32,5.69l-6.58,23.51-5.69,19.26-8.6-2.31Z"/>
          <path class="st1" d="M298.68,94.34h0c.53,0,1.11.08,1.72.24,1.05.28,1.76.8,2.15,1.59.84,1.71.04,4.39-.33,5.28l-.03.06-.02.06-6.56,23.43-5.55,18.8-7.64-2.05,12.43-44.75c.03-.11.88-2.67,3.83-2.67M298.68,93.34c-3.76,0-4.78,3.38-4.78,3.38l-12.71,45.74,9.56,2.57,5.83-19.74,6.56-23.45s2.92-6.81-2.48-8.23c-.73-.19-1.39-.27-1.98-.27h0Z"/>
        </g>
        <path class="st14" d="M300.66,93.61c-.15-.04-.28-.06-.43-.09,1.34,1.92,1.96,2.93.62,7.54-1.52,5.19-7.37,27.55-7.37,27.55l-2.83,10.93s-1.08,2.25-2.78,2.25c-1.54-.09-2.71-.21-3.67-.98-.86-.7-1.27-.74-.9-3.15.11-.7-.08-1.12-.39-1.36l-1.71,6.15,9.56,2.57,5.83-19.74,6.56-23.45s2.92-6.81-2.48-8.23Z"/>
        <path class="st23" d="M269.17,152.45c-2.45-7.83-1.81-11.02,0-17.02s5.28-11.06,7.41-14.66,5.6-4.13,8.26-2.93,5.2,7.73,2.13,13.73c-3.07,6-3.86,5.2-4,7.6s1.07,4,3.2,4.66,5.2-.4,6.13-4c0,0-4.53-3.73,0-9.73,4.53-6,8.13-8.4,11.86-7.46s4.93,2.93,6,5.6.8,4.66,2.27,8.13c1.47,3.46,5.6,8.66,3.6,15.46s-6.7,12.75-12.74,17.5c0,0,.83,3.86-3.87,5.77s-12.5.95-19.26-3.36c-6.76-4.32-11.32-10.65-10.98-19.28Z"/>
        <path class="st19" d="M303.29,169.32c-3.19,2.31-12.27,5.06-21.03-1.77s-11.58-11.95-13.08-15.1l-1.09,14.49,23.55,16.68,12.45-10.06s.26-2.27-.8-4.24Z"/>
        <path class="st24" d="M302.16,155.82c-1.73.98-3.92,1.12-5.81.58-3.32-.87-4.7-4.68-4.35-7.82.2-2.02.95-3.87.94-6.03-.05-3.09-2.05-5.74-1.99-8.74.23-1.86,1.6-3.57,2.52-5.2-5.63,5.81-2.99,6.87-2.64,12.73,0,0,.15,2.02-2.87,2.35-1.51.17-2.29-.25-2.69-.71-1.31-1.51-2.8-2.89-4.68-3.57-.3-.11-.61-.21-.92-.3.99,1.48,2.07,2.71,2.95,4.04,3.18,4.17,3.21,7.83,1.74,12.78.94-.65,1.68-1.36,2.26-2.12h0s0,0,0,0c.14-.18.26-.36.38-.55.63-.99,2.07-.97,2.59.09l.06.12c.06.2.11.39.18.59,0,0,0,0,0,0h0c.09.25.18.5.28.75,1.78,4.67,7.91,6.6,12.19,4.16,2.85-1.56,4.57-4.57,5.85-7.46-2.17,1.35-3.96,2.96-5.97,4.28Z"/>
      </g>
      <g>
        <g>
          <path class="st22" d="M179.89,313.74s-3.23,9.38.62,13.07,12.92,10.76,46.59,12.76c33.67,2,47.67-4.46,47.67-12.3s-10.3-16.14-21.07-19.99c-10.76-3.84-73.8,6.46-73.8,6.46Z"/>
          <path class="st17" d="M178.8,318.52c10.94,2.94,29.85,5.81,47.88,3.5s28.57-4.33,36.37-10.16c0,0-6.23-3.95-9.37-4.57s-74.22,7.86-74.22,7.86l-.67,3.38Z"/>
        </g>
        <g>
          <path class="st22" d="M44.58,338.49c14.71,5.81,39.11,3.68,55.17,0s32.91-7.55,32.72-16.84-21.49-18.2-21.49-18.2h-42.59s-31.56,7.74-33.69,23.04c-1.74,7.7,9.87,12,9.87,12Z"/>
          <path class="st17" d="M132.48,321.65c-11.85,3.07-27.08,5.6-48.97,4.39s-34.52-5.51-41.3-10.72c0,0,4.46-3.36,8.22-5.15l76.39,2.62s5.44,3.97,5.66,8.85Z"/>
        </g>
      </g>
      <circle class="st25" cx="159.95" cy="251.33" r="7.39"/>
      <g>
        <path class="st4" d="M47.36,270.43s-1.78,11.04-5.09,28.2c-1.07,5.57-3.04,11.14-2.09,12.22s15.77,10.36,44.51,11.81c28.74,1.44,48.95-5.92,48.95-5.92,0,0,2.45-.29,3.32-5.2s3.03-7.5,4.77-11.68l32.06-.87s2.6.42,3.47,6.34-.29,9.1,4.48,10.4,17.76,4.77,39.13,3.61c21.37-1.16,37.83-7.21,42.74-10.1,0,0-4.13-24.39-7.41-40.27s-160.89-27.19-208.83,1.47Z"/>
        <path class="st15" d="M46.2,277.22s16.2,7.77,54.05,10.54,55.65-.33,60.46-1.79c4.81-1.47,7.95-4.96,9.08-7.25,0,0,2.39,8.22,20.53,7.66s55.83-6.82,66.87-12.07l-3.5-19.79-203.56.43-3.95,22.27Z"/>
      </g>
      <path class="st16" d="M83.81,156.34c28.42,12.92,53.32,19.33,77.12,18.61,23.8-.72,61.44-11.9,77.04-26.24v81.65H83.81v-74.02Z"/>
      <g class="st15">
        <path class="st21" d="M116.27,188.98c8,3.07,16.08,7.01,24.53,8.32,0,0-1.44.73-1.44.73,3.35-6.63,6.91-13.09,10.93-19.35,0,0,2.28,1.48,2.28,1.48-1.98,3.05-3.84,6.2-5.63,9.39-1.96,3.49-3.85,7.04-5.63,10.62,0,0-.97-.21-.97-.21-8.79-1.96-16.43-6.37-24.48-10.07,0,0,.4-.92.4-.92h0Z"/>
      </g>
      <g class="st15">
        <path class="st21" d="M174.9,180.71c3.98,4.77,7.75,9.61,11.54,14.47,0,0-1.46-.4-1.46-.4,11-4.04,22.2-8.28,31.97-14.87,0,0,.55.73.55.73-4.74,3.67-10.01,6.52-15.32,9.22-5.6,2.81-11.3,5.36-17.12,7.71,0,0-.63-.73-.63-.73-4.03-4.62-8.08-9.27-12.22-13.72,0,0,2.7-2.4,2.7-2.4h0Z"/>
      </g>
      <path class="st10" d="M149.88,219.46l5.96-23.94-8.04-12.9,5.08-8.04s2.58.48,8.06.37c5.48-.12,8.88-.75,8.88-.75l6.4,8.13s-1.1,4.15-2.6,7.32-2.83,6-2.83,6c0,0,5.59,21.57,7.85,29.16s4.42,17.55,4.42,17.55h-35.27l2.08-22.9Z"/>
      <path class="st0" d="M167.72,234.93c14.28-12.9,29.54-27.63,47.43-53.15,17.89-25.52,33.68-48.41,34.99-53.41,0,0,3.95,2.89,4.74,13.16,0,0,8.95,6.84,13.68,15l.61-4.07s-1.23,12.81,12.56,20.2c13.62,6.59,22.29,1.72,21.55-3.33,0,0,2.96,3.72-1.23,14.3s-11.33,17.97-18.6,20.68-19.46,3.82-26.72-5.05l9.85,58.06s1.94,7.12-10.22,11.29c-13.61,4.37-26.73,8.32-60.63,11.54,0,0-23.61,3.96-25.65-10.81,0,0,2.04-3.81,2.04-17.07s-4.4-17.33-4.4-17.33Z"/>
      <path class="st23" d="M23,211c-4.11,1-9.03,4-8.21,9.47s8.47,10.92,15.57,11.06c7.1.14,19.29,1.21,23.95-13.23,6.16-19.1-.87-22.76-5.37-27.71-4.51-4.95-25.93,20.41-25.93,20.41Z"/>
      <path class="st19" d="M15.14,219.38c1.36,5.23,13.19,3.28,16.39-2.22,1.32-2.26,1.57-5.14-.03-8.05-9.7,1.2-17.49,4.27-16.36,10.27Z"/>
      <path class="st11" d="M167.72,234.93c1.81.27,3.73,1.02,5.22,7.14s1.98,14.02.54,20.67-3.29,7.24-3.29,7.24l-.3-1.13-2.17-33.92Z"/>
      <path class="st0" d="M162.58,278.53c7.75-4.05,9.54-13.81,9.54-23.85s-.75-17.58-7.53-22.85-38.16-32.14-59-53.48c-20.84-21.34-47.86-51.1-52.64-63.4,0,0-7.82,2.57-9.15,7.49,0,0-42.85,22.52-43.76,45.18s20.84,42.37,20.84,42.37c0,0,7.25,5.21,19.48-1.81s11.61-8.92,11.87-11.12-2.18-5.68-3.31-6.46c0,0,8.84,7.4,6.87,21.48s-10.69,17.55-10.69,17.55l-4.79,31.58s-1.82,5.67,5.07,8.51c6.89,2.84,37.29,10.25,61.92,11.71,24.63,1.46,45.91,2,55.28-2.89Z"/>
      <path class="st11" d="M67.39,229.07c-.29,3.89-.29,5.45,0,8.27,0,0,9.04,2.72,21.69,3.4s23.83-.58,23.83-.58c0,0,.68-5.54.39-7.88,0,0-14.35.39-23.03-.19s-22.88-3.01-22.88-3.01Z"/>
      <path class="st11" d="M168.97,242.07c-2.17-5.22-8.1-7.02-12.81-9.25-4.95-2.29-9.87-4.62-14.73-7.09-19.51-9.77-38.56-20.47-56.58-32.83-9.16-6.5-18.45-12.96-25.32-22.09,1.43-4.18,3.72-8.23,7.38-10.81.02-.04.14.73.15.72-6.78-1.5-13.78-3.35-20.73-3.07-.75-3.13-1.36-6.28-1.86-9.42-1.34-8.52-2.1-17.23-1.08-25.83,0,0,.83.09.83.09-.76,11.33,1.3,22.73,4.2,33.63.01,0-1.24-.9-1.18-.88,6.95.42,13.46,2.7,20.05,4.68,0,0,.66.21.66.21l-.52.52c-2.83,2.67-4.39,6.51-5.17,10.23,0,0-.2-1.07-.2-1.07,6.42,8.48,15.46,14.99,24.15,21.13,17.94,12.23,36.98,22.85,55.99,33.31,4.79,2.57,9.56,5.19,14.39,7.68,4.59,2.39,10.64,4.78,12.37,10.13h0Z"/>
      <path class="st11" d="M169.43,237.63c29.15-17.71,58.17-37.78,77.59-66.35,0,0-.06,1.15-.06,1.14-1.88-3.75-4.26-7.39-7.25-10.34,4.75-1.2,9.39-2.56,14.28-3.17,0,0-1.12.92-1.12.92,1.55-5.9,1.93-12.16,1.56-18.27,0,0,.88-.1.88-.1.91,6.28,1.06,12.68-.06,18.97,0,0-.17.86-.17.86-4.46.26-8.94,1.34-13.32,2.25,0,0,.46-1.63.46-1.63,2.93,2.96,5.15,6.39,7.1,10.03-14,22.38-35.04,39.37-57.04,53.45-7.29,4.63-14.83,8.89-22.41,12.99,0,0-.45-.76-.45-.76h0Z"/>
      <path class="st11" d="M268.56,156.52c-2.91,4.94-6.88,8.8-10.45,13.19-.22-4.86,5.8-11.97,10.45-13.19h0Z"/>
      <circle class="st11" cx="160.33" cy="253.79" r="7.39"/>
      <circle class="st6" cx="159.95" cy="251.33" r="7.39"/>
      <path class="st11" d="M47.77,165.65c.36,9.66-.64,19.61,4.12,28.42-8.29-6.05-7.09-19.76-4.12-28.42h0Z"/>
      <path class="st11" d="M256.73,199.25c-2.72-4.41-3.08-17.16-2.24-22.58,0,0,4.08,25.92,10.51,28.34-3.32-1.55-5.69-2.58-8.27-5.76Z"/>
      <circle class="st4" cx="160.72" cy="251.16" r="6.26"/>
      <path class="st18" d="M155.84,195.52c2.95.27,11.47.27,15.22-.43l-.26.56.13.51s-3.27,1.2-7.1,1.2-6.92-.57-8.16-1.14l.18-.71Z"/>
      <path class="st13" d="M254.49,176.66c-2.05,21.85-2.28,29.82-.4,44.95,1.88,15.13,4.97,27.54,3.75,34.32s-5.37,10.55-12.76,16.1c0,0,17.54-3.85,20.03-9.06,2.34-3.77,1.52-5.41.97-8.69s-7.2-42.32-9.34-55.04-2.24-22.58-2.24-22.58Z"/>
      <path class="st5" d="M128.53,297.32c8.51.13,17.52.65,26.02.68,11.17.15,22.19-.55,33.39-.68-19.28,5.59-40.03,4.57-59.42,0h0Z"/>
      <path class="st12" d="M279.39,205.29c11.86-3.57,19.08-21.81,17.87-24.23s-3.18-1.03-6.97-3.01c-3.79-1.99-4.2-3.44-4.2-3.44,0,0,7.75,2.48,12.68.45s4.53-5.6,4.53-5.6c0,0,3.26,3.87-2.24,16.54-5.5,12.67-16.43,18.94-21.68,19.29Z"/>
      <path class="st13" d="M47.77,165.65c-4.16,10.62-6,24.82-4.29,30.58s-.36,11.07-4.88,12.89c0,0,13.93-5.95,13.63-12.06s-5.41-5.32-6.3-14.48c-1.04-10.66,1.84-16.93,1.84-16.93Z"/>
      <path class="st20" d="M164.84,197.36c1.14,4.14,2.92,11.2,1.28,12.59s-4.29.83-4.64-.39-.61-1.6-.26-4.96c.41-3.95,1.08-7.24,1.08-7.24h2.55Z"/>
    </g>
  </g>
</svg>